<svg width="90" height="12" fill="none" xmlns="http://www.w3.org/2000/svg"><g clip-path="url(#clip0)"><path fill-rule="evenodd" clip-rule="evenodd" d="M56.28 5.306l.005 1.8a5.784 5.784 0 01-.07-.91v-.015c0-.298.022-.59.066-.875zm13.637.024h-5.305l.007 2.468h2.505a3.272 3.272 0 01-.986 1.11 3.29 3.29 0 01-1.513.59l.006 2.478a5.76 5.76 0 002.272-.648 5.75 5.75 0 001.403-1.036c.037-.036.073-.074.11-.112a5.8 5.8 0 001.52-4.851h-.019v0zM69.389.39h-.243l.002.484.24-.483z" fill="#4CC1ED" stroke="#4CC1ED" stroke-width=".216" stroke-miterlimit="22.926"/><path fill-rule="evenodd" clip-rule="evenodd" d="M68.156 2.861l.239-.478.753-1.51-.001-.482h-1.515l.006 2.47h.518z" fill="#4CC1ED" stroke="#4CC1ED" stroke-width=".216" stroke-miterlimit="22.926"/><path fill-rule="evenodd" clip-rule="evenodd" d="M66.123 2.861h1.515l-.006-2.47h-2.273l.006 2.47h.758zm-.758 0l-.006-2.47H64.6l.007 2.47h.757zM63.857 5.33l.005 1.93.268.538h.49l-.006-2.469h-.757zm.357 4.193h-2.216a3.365 3.365 0 01-1.162-.21l.007 2.563a5.669 5.669 0 001.153.116h2.22c.14 0 .279-.006.416-.015l-.007-2.478a3.47 3.47 0 01-.411.024z" fill="#4CC1ED" stroke="#4CC1ED" stroke-width=".216" stroke-miterlimit="22.926"/><path fill-rule="evenodd" clip-rule="evenodd" d="M64.214 2.858c.03 0 .056 0 .086.003h.307L64.6.39h-.757l.006 2.468h.365z" fill="#4CC1ED" stroke="#4CC1ED" stroke-width=".216" stroke-miterlimit="22.926"/><path fill-rule="evenodd" clip-rule="evenodd" d="M63.092 2.858h.758L63.843.391h-1.515l.007 2.467h.757zM62.9 5.33l.2.401.762 1.528-.005-1.93H62.9z" fill="#4CC1ED" stroke="#4CC1ED" stroke-width=".216" stroke-miterlimit="22.926"/><path fill-rule="evenodd" clip-rule="evenodd" d="M61.577 2.885c.139-.017.279-.027.422-.027h.335L62.328.39h-.332a5.88 5.88 0 00-1.183.121l.006 2.563a3.42 3.42 0 01.758-.189z" fill="#4CC1ED" stroke="#4CC1ED" stroke-width=".216" stroke-miterlimit="22.926"/><path fill-rule="evenodd" clip-rule="evenodd" d="M60.82 3.075L60.813.512a5.74 5.74 0 00-.757.213l.008 2.759c.232-.168.485-.306.756-.41zm-1.168.761a3.38 3.38 0 01.412-.352L60.056.725a5.74 5.74 0 00-.756.334l.009 3.18c.103-.144.218-.278.343-.403zm-.332 4.323l.008 3.178c.242.128.496.238.758.33.245.085.499.155.758.209l-.007-2.563a3.31 3.31 0 01-1.518-1.154z" fill="#4CC1ED" stroke="#4CC1ED" stroke-width=".216" stroke-miterlimit="22.926"/><path fill-rule="evenodd" clip-rule="evenodd" d="M59.319 8.159a3.323 3.323 0 01-.642-1.968c0-.73.234-1.405.631-1.953l-.008-3.18c-.265.14-.518.3-.756.479l.017 6.225-.017-6.225a5.777 5.777 0 00-1.51 1.676l.015 5.982a5.782 5.782 0 001.52 1.668c.239.177.493.336.758.475l-.008-3.18zM56.28 5.306l.005 1.8c.12.754.384 1.461.764 2.09l-.016-5.983a5.787 5.787 0 00-.752 2.093zM80.51.548a5.761 5.761 0 00-.757-.128l.007 2.438L79.753.42a5.927 5.927 0 00-.585-.03h-.931l.007 2.468h.924l.048.001c.035.001.07.001.104.003.015 0 .029.002.043.003l.105.006.041.005a3.325 3.325 0 012.98 3.313 3.321 3.321 0 01-1.156 2.527 3.325 3.325 0 01-1.556.75 3.38 3.38 0 01-.609.056h-2.22a3.553 3.553 0 01-.414-.026 3.33 3.33 0 01-2.304-1.39l-.016-.023c-.022-.032-.042-.064-.063-.097-.017-.026-.035-.051-.05-.078a3.323 3.323 0 01-.429-1.154l-.013-.099c-.004-.029-.01-.057-.013-.086l-.01-.114-.006-.073-.003-.119c-.001-.024-.003-.049-.003-.074 0-.031.002-.061.003-.092 0-.033 0-.065.003-.097.001-.032.005-.064.008-.097l.007-.085c.005-.047.012-.093.019-.14l.005-.039c.01-.06.021-.119.034-.176l.008-.029c.014-.06.029-.12.046-.179l.02-.06c.014-.047.028-.095.046-.141l.014-.038a3.318 3.318 0 011.269-1.6c.035-.023.07-.047.107-.07a3.33 3.33 0 011.513-.481h.002a3.45 3.45 0 01.218-.007h1.296L78.235.389h-1.289a5.74 5.74 0 00-.983.084l.006 2.385-.007-2.385a5.684 5.684 0 00-1.514.484l.006 1.9-.006-1.9a5.876 5.876 0 00-1.512 1.052l.009 3.37-.01-3.37-.08.079a5.766 5.766 0 00-1.428 2.362l.009 3.509a5.788 5.788 0 001.522 2.433 5.821 5.821 0 001.518 1.045 5.777 5.777 0 001.516.475 5.913 5.913 0 00.953.08h2.22a5.886 5.886 0 001.373-.165 5.797 5.797 0 004.41-5.633v-.006a5.794 5.794 0 00-4.437-5.64z" fill="#4CC1ED" stroke="#4CC1ED" stroke-width=".216" stroke-miterlimit="22.926"/><path fill-rule="evenodd" clip-rule="evenodd" d="M71.166 6.188v.005c0 .616.096 1.21.274 1.766l-.01-3.508a5.8 5.8 0 00-.264 1.737z" fill="#4CC1ED" stroke="#4CC1ED" stroke-width=".216" stroke-miterlimit="22.926"/><path fill-rule="evenodd" clip-rule="evenodd" d="M53.995.39l.03 11.38h.708V.39h-.738z" fill="#fff"/><path fill-rule="evenodd" clip-rule="evenodd" d="M53.257 7.706L53.236.39h-.965v4.6h-3.568l.007 2.469h3.561v4.31h1.754L53.995.39h-.758l.02 7.316zm-5.31-2.715h-.758l.004 1.452.507 1.017h1.01l-.007-2.469h-.758z" fill="#fff"/><path fill-rule="evenodd" clip-rule="evenodd" d="M46.47 4.991l.723 1.452-.004-1.452h-.72zm-4.586-.727a4.328 4.328 0 00-.763-2.028l.013 4.98a4.339 4.339 0 00.752-2.03V4.8v.386a4.393 4.393 0 00-.002-.922zm-1.523-2.857a4.302 4.302 0 00-.759-.513l.02 7.674a4.33 4.33 0 001.512-1.35l-.013-4.981a4.384 4.384 0 00-.76-.83z" fill="#fff"/><path fill-rule="evenodd" clip-rule="evenodd" d="M38.843.58a4.307 4.307 0 00-1.266-.19h-.25l.008 2.47h.242a1.861 1.861 0 011.274.502c.367.343.598.832.598 1.375a1.875 1.875 0 01-1.871 1.876h-.991l.007 2.469h.984a4.368 4.368 0 001.289-.196c.264-.082.517-.19.757-.318l-.02-7.674a4.297 4.297 0 00-.76-.314z" fill="#fff"/><path fill-rule="evenodd" clip-rule="evenodd" d="M36.57.39l.007 2.468h.758L37.328.391h-.757zm.007 2.468L36.57.391h-.758l.007 2.467h.757z" fill="#fff"/><path fill-rule="evenodd" clip-rule="evenodd" d="M35.82 2.858L35.813.391h-.758l.007 2.467h.758zm.01 3.755h-.758l.007 2.468h1.514l-.006-2.468h-.758zm-1.515.079a.739.739 0 00-.33.33l-.425.855-.6 1.205h2.118l-.007-2.468h-.426a.723.723 0 00-.331.078z" fill="#fff"/><path fill-rule="evenodd" clip-rule="evenodd" d="M35.062 2.858L35.055.391h-.757l.006 2.467h.758z" fill="#fff"/><path fill-rule="evenodd" clip-rule="evenodd" d="M34.304 2.858L34.298.391h-1.516l.007 2.467h1.515z" fill="#fff"/><path fill-rule="evenodd" clip-rule="evenodd" d="M32.025.39l.015 5.39-.015-5.39h-.758l.03 11.38h.769V2.857h.723L32.782.391h-.757z" fill="#fff"/><path fill-rule="evenodd" clip-rule="evenodd" d="M30.532 8.518L30.51.391h-.757l.03 11.378h1.515L31.268.391h-.758l.022 8.127z" fill="#fff"/><path fill-rule="evenodd" clip-rule="evenodd" d="M29.605.39v11.38h.178L29.753.39h-.148zm15.314 5.69L44.904.39h-1.515l.03 11.38h2.087V.39h-.602l.015 5.69z" fill="#fff"/><path fill-rule="evenodd" clip-rule="evenodd" d="M43.045.39v11.38h.374L43.39.39h-.344zM13.103 7.121a3.483 3.483 0 00-1.52-1.634 3.396 3.396 0 00-1.516-.406l-.108-.002H3.567a1.102 1.102 0 01-1.079-.859 1.108 1.108 0 010-.498c.088-.383.385-.682.755-.803.118-.04.243-.06.371-.06h7.756l.208-.417L12.33.93l.27-.54H3.566a3.631 3.631 0 00-1.087.17 3.544 3.544 0 00-1.512.96 3.564 3.564 0 00-.754 1.227l.006 2.46a3.557 3.557 0 00.827 1.29 3.585 3.585 0 001.451.885 3.563 3.563 0 001.07.163h6.348a1.04 1.04 0 01.919.542.931.931 0 01.104.349.985.985 0 01-.98 1.084H1.26l-.27.541-.754 1.512.001.415h9.727c.042 0 .083 0 .124-.002a3.39 3.39 0 001.514-.414 3.453 3.453 0 001.511-1.643 3.447 3.447 0 00-.01-2.809zM.213 2.748a3.59 3.59 0 00.006 2.46l-.006-2.46z" fill="#fff"/><path fill-rule="evenodd" clip-rule="evenodd" d="M.03 11.99h.207l-.001-.414-.207.415zm26.697-9.614l.014 5.063-.014-5.063a5.866 5.866 0 00-1.518-1.24l.004 1.723-.004-1.723a5.721 5.721 0 00-.759-.358l.005 2.081L24.45.778a5.794 5.794 0 00-1.516-.36l.007 2.49a3.294 3.294 0 011.517.69 3.352 3.352 0 01.956 1.256c.018.04.033.08.048.12.013.032.027.064.038.097a3.379 3.379 0 01.186 1.352 3.323 3.323 0 01-3.314 3.1h-2.22a3.598 3.598 0 01-.354-.019l-.064-.006-.04-.006a3.416 3.416 0 01-.376-.074 3.288 3.288 0 01-1.396-.758 3.326 3.326 0 01-1.031-1.828v-.01a3.366 3.366 0 01.251-2.037 3.353 3.353 0 01.799-1.08 3.301 3.301 0 012.206-.843h1.279L21.42.394h-1.268c-.083 0-.166.001-.248.005l.007 2.463-.007-2.466a5.742 5.742 0 00-3.028 1.013c-.27.186-.522.394-.755.622l-.059.057a5.8 5.8 0 00-1.45 2.432l.01 3.37a5.803 5.803 0 004.556 4.02 5.773 5.773 0 00.974.082h2.22a5.686 5.686 0 001.35-.16c.26-.062.513-.142.758-.238l-.006-2.07.006 2.07a5.808 5.808 0 002.268-1.61 5.8 5.8 0 001.406-3.79V6.19a5.786 5.786 0 00-1.427-3.813z" fill="#fff"/><path fill-rule="evenodd" clip-rule="evenodd" d="M22.183 2.858h.187l.043.001c.034.001.069.001.103.003l.035.002.108.007a.532.532 0 01.056.006c.028.003.057.005.085.009l.027.004.113.016v-.048L22.933.417a5.733 5.733 0 00-.564-.028h-.952l.007 2.469h.759zM14.368 6.19c0 .592.088 1.162.252 1.7l-.009-3.37a5.831 5.831 0 00-.243 1.67z" fill="#fff"/></g><defs><clipPath id="clip0"><path fill="#fff" d="M0 0h112v12H0z"/></clipPath></defs></svg>
